HIERARCHY
ROOT Hips
{
	OFFSET 0.000000 0.000000 0.000000
	CHANNELS 6 Xposition Yposition Zposition Zrotation Yrotation Xrotation 
	JOINT LHipJoint
	{
		OFFSET 0.000000 0.000000 0.000000
		CHANNELS 3 Zrotation Yrotation Xrotation
		JOINT LeftUpLeg
		{
			OFFSET 1.363060 -1.794630 0.839290
			CHANNELS 3 Zrotation Yrotation Xrotation
			JOINT LeftLeg
			{
				OFFSET 2.448110 -6.726130 0.000000
				CHANNELS 3 Zrotation Yrotation Xrotation
				JOINT LeftFoot
				{
					OFFSET 2.562200 -7.039590 0.000000
					CHANNELS 3 Zrotation Yrotation Xrotation
					JOINT LeftToeBase
					{
						OFFSET 0.157640 -0.433110 2.322550
						CHANNELS 3 Zrotation Yrotation Xrotation
						End Site
						{
							OFFSET 0.000000 0.000000 0.000000
						}
					}
				}
			}
		}
	}
	JOINT RHipJoint
	{
		OFFSET 0.000000 0.000000 0.000000
		CHANNELS 3 Zrotation Yrotation Xrotation
		JOINT RightUpLeg
		{
			OFFSET -1.305520 -1.794630 0.839290
			CHANNELS 3 Zrotation Yrotation Xrotation
			JOINT RightLeg
			{
				OFFSET -2.542530 -6.985550 0.000000
				CHANNELS 3 Zrotation Yrotation Xrotation
				JOINT RightFoot
				{
					OFFSET -2.568260 -7.056230 0.000000
					CHANNELS 3 Zrotation Yrotation Xrotation
					JOINT RightToeBase
					{
						OFFSET -0.164730 -0.452590 2.363150
						CHANNELS 3 Zrotation Yrotation Xrotation
						End Site
						{
							OFFSET 0.000000 0.000000 0.000000
						}
					}
				}
			}
		}
	}
	JOINT LowerBack
	{
		OFFSET 0.000000 0.000000 0.000000
		CHANNELS 3 Zrotation Yrotation Xrotation
		JOINT Spine
		{
			OFFSET 0.028270 2.035590 -0.193380
			CHANNELS 3 Zrotation Yrotation Xrotation
			JOINT Spine1
			{
				OFFSET 0.056720 2.048850 -0.042750
				CHANNELS 3 Zrotation Yrotation Xrotation
				JOINT Neck
				{
					OFFSET 0.000000 0.000000 0.000000
					CHANNELS 3 Zrotation Yrotation Xrotation
					JOINT Neck1
					{
						OFFSET -0.054170 1.746240 0.172020
						CHANNELS 3 Zrotation Yrotation Xrotation
						JOINT Head
						{
							OFFSET 0.104070 1.761360 -0.123970
							CHANNELS 3 Zrotation Yrotation Xrotation
							End Site
							{
								OFFSET 0.000000 0.000000 0.000000
							}
						}
					}
				}
				JOINT LeftShoulder
				{
					OFFSET 0.000000 0.000000 0.000000
					CHANNELS 3 Zrotation Yrotation Xrotation
					JOINT LeftArm
					{
						OFFSET 3.362410 1.200890 -0.311210
						CHANNELS 3 Zrotation Yrotation Xrotation
						JOINT LeftForeArm
						{
							OFFSET 4.983000 -0.000000 -0.000000
							CHANNELS 3 Zrotation Yrotation Xrotation
							JOINT LeftHand
							{
								OFFSET 3.483560 -0.000000 -0.000000
								CHANNELS 3 Zrotation Yrotation Xrotation
								JOINT LeftFingerBase
								{
									OFFSET 0.000000 0.000000 0.000000
									CHANNELS 3 Zrotation Yrotation Xrotation
									JOINT LeftHandIndex1
									{
										OFFSET 0.715260 -0.000000 -0.000000
										CHANNELS 3 Zrotation Yrotation Xrotation
										End Site
										{
											OFFSET 0.000000 0.000000 0.000000
										}
									}
								}
								JOINT LThumb
								{
									OFFSET 0.000000 0.000000 0.000000
									CHANNELS 3 Zrotation Yrotation Xrotation
									End Site
									{
										OFFSET 0.000000 0.000000 0.000000
									}
								}
							}
						}
					}
				}
				JOINT RightShoulder
				{
					OFFSET 0.000000 0.000000 0.000000
					CHANNELS 3 Zrotation Yrotation Xrotation
					JOINT RightArm
					{
						OFFSET -3.136600 1.374050 -0.404650
						CHANNELS 3 Zrotation Yrotation Xrotation
						JOINT RightForeArm
						{
							OFFSET -5.241900 -0.000000 -0.000000
							CHANNELS 3 Zrotation Yrotation Xrotation
							JOINT RightHand
							{
								OFFSET -3.444170 -0.000000 -0.000000
								CHANNELS 3 Zrotation Yrotation Xrotation
								JOINT RightFingerBase
								{
									OFFSET 0.000000 0.000000 0.000000
									CHANNELS 3 Zrotation Yrotation Xrotation
									JOINT RightHandIndex1
									{
										OFFSET -0.622530 -0.000000 -0.000000
										CHANNELS 3 Zrotation Yrotation Xrotation
										End Site
										{
											OFFSET 0.000000 0.000000 0.000000
										}
									}
								}
								JOINT RThumb
								{
									OFFSET 0.000000 0.000000 0.000000
									CHANNELS 3 Zrotation Yrotation Xrotation
									End Site
									{
										OFFSET 0.000000 0.000000 0.000000
									}
								}
							}
						}
					}
				}
			}
		}
	}
}
MOTION
Frames: 5
Frame Time: 0.008333
3.308333 17.246856 0.729276 12.723409 -83.276402 0.248598 -11.157492 1.011064 1.860655 -4.641874 10.243211 -16.648193 -2.591893 -1.637680 -3.669038 0.156278 3.396155 5.830669 1.134300 0.000000 -36.207799 9.697924 -2.380627 2.089607 3.152123 -7.164571 -11.643262 2.044620 1.255899 -1.374686 -0.657174 -8.095860 -2.160655 -2.339799 0.000000 -41.358900 -1.776541 3.390971 -4.711213 -0.032793 3.673570 -4.203402 0.944814 3.698035 -3.277595 -4.919671 3.229356 0.412497 -0.801817 -0.197594 2.270788 0.000000 0.000000 0.000000 3.621903 1.118745 -5.610322 -94.292702 -26.606021 32.404427 179.477655 -57.527859 179.939170 1.778948 -9.081214 -0.143278 0.174175 1.063353 -0.000000 0.000000 0.000000 0.000000 0.000000 0.000000 0.000000 -14.688369 9.040564 4.041859 -20.566713 67.562182 -90.486463 -2.359195 -2.678867 -0.057891 -12.689355 3.192542 -0.401671 0.292982 -0.334415 -0.000000 0.000000 0.000000 0.000000 0.000000 0.000000 0.000000 
3.303476 17.246669 0.729936 11.696031 -83.056316 1.275005 -11.136180 1.006281 1.879452 -4.557292 10.117633 -16.622259 -2.585377 -1.639439 -3.729614 0.149830 3.346267 5.864584 1.126500 -0.000000 -36.259400 9.713958 -2.383040 2.070613 3.229618 -7.203048 -11.557914 2.039984 1.255641 -1.398127 -0.675690 -8.235124 -2.169541 -2.365000 -0.000001 -41.347500 -1.718381 3.347967 -4.706901 0.000168 3.628504 -4.207271 1.036981 3.653763 -3.316459 -5.136750 2.878549 0.390143 -0.722467 -0.192947 2.268762 0.000000 0.000000 0.000000 3.608473 1.113549 -5.578869 -94.337610 -26.420427 32.212157 179.447233 -57.463175 179.938261 1.823868 -9.081872 -0.147252 0.174974 1.063681 -0.000000 0.000000 0.000000 0.000000 0.000000 0.000000 0.000000 -15.340733 8.793041 3.777903 -19.135119 67.992402 -92.731420 -2.495347 -1.950198 -0.056003 -11.863265 4.295642 -0.495182 0.256756 -0.362687 -0.000000 0.000000 0.000000 0.000000 0.000000 0.000000 0.000000 
3.299289 17.246598 0.731815 10.664721 -82.843430 2.297771 -11.118489 0.998794 1.883952 -4.462285 10.011010 -16.575460 -2.577707 -1.638801 -3.796848 0.142955 3.286181 5.898329 1.115600 0.000000 -36.318400 9.727074 -2.381585 2.041878 3.312002 -7.227787 -11.447223 2.034005 1.254525 -1.427716 -0.696904 -8.389276 -2.169684 -2.392800 0.000000 -41.318900 -1.607264 3.309315 -4.674938 0.026403 3.581581 -4.238521 1.050808 3.616034 -3.491862 -5.266816 2.624164 0.485909 -0.657642 -0.191449 2.300704 0.000000 0.000000 0.000000 3.597741 1.060785 -5.465945 -94.253917 -26.197033 31.942817 179.457689 -57.405232 179.937687 1.894309 -9.049351 -0.153276 0.171449 1.066294 -0.000000 0.000000 0.000000 0.000000 0.000000 0.000000 0.000000 -15.938980 8.701260 3.226185 -15.620529 68.528832 -92.604297 -2.640391 -0.329845 -0.052914 -10.461716 5.205045 -0.523100 0.203394 -0.389525 -0.000000 0.000000 0.000000 0.000000 0.000000 0.000000 0.000000 
3.295916 17.246605 0.734734 9.662373 -82.658852 3.280646 -11.104284 0.992644 1.876916 -4.359392 9.927791 -16.508855 -2.568329 -1.634735 -3.867737 0.136730 3.221407 5.928869 1.102500 -0.000001 -36.384300 9.737283 -2.374453 2.004948 3.395985 -7.234879 -11.312677 2.027346 1.254497 -1.463982 -0.720072 -8.550756 -2.160494 -2.421600 -0.000000 -41.272800 -1.461402 3.260205 -4.622161 0.039751 3.518544 -4.283443 0.967484 3.567508 -3.734047 -5.247007 2.472500 0.640443 -0.646128 -0.194147 2.348036 0.000000 0.000000 0.000000 3.639611 1.014959 -5.312976 -94.073205 -25.954704 31.614932 179.498431 -57.347858 179.937371 1.984601 -8.991032 -0.160861 0.164539 1.070211 -0.000000 0.000000 0.000000 0.000000 0.000000 0.000000 0.000000 -16.189246 8.675137 2.580181 -11.709931 69.124913 -90.684439 -2.761778 1.522018 -0.048253 -8.623985 6.008902 -0.493323 0.139414 -0.414812 -0.000000 0.000000 0.000000 0.000000 0.000000 0.000000 0.000000 
3.293129 17.246492 0.738389 8.730985 -82.500822 4.191527 -11.095150 0.985403 1.854442 -4.254132 9.867333 -16.427757 -2.558168 -1.628172 -3.937999 0.131405 3.155608 5.952311 1.087700 -0.000000 -36.458100 9.743651 -2.362271 1.958464 3.477059 -7.225428 -11.160886 2.020024 1.255307 -1.508121 -0.744944 -8.712685 -2.145320 -2.449200 0.000000 -41.212800 -1.310815 3.211855 -4.538684 0.025789 3.452544 -4.357489 0.749703 3.523721 -4.112614 -5.019453 2.436936 0.890224 -0.692306 -0.202030 2.421563 0.000000 0.000000 0.000000 3.799754 0.953503 -5.108446 -93.838568 -25.669789 31.271411 179.569510 -57.322330 179.937359 2.081742 -8.916658 -0.168924 0.154847 1.075889 -0.000000 0.000000 0.000000 0.000000 0.000000 0.000000 0.000000 -16.052619 8.736773 1.728594 -6.299788 69.638329 -84.604943 -2.914729 3.912057 -0.043082 -6.727622 6.309623 -0.401845 0.075771 -0.432518 -0.000000 0.000000 0.000000 0.000000 0.000000 0.000000 0.000000 
